<svg width="32" height="32" viewBox="0 0 32 32"  xmlns="http://www.w3.org/2000/svg">
<g clip-path="url(#clip0_9_20)">
<path d="M22.7692 14.7692C22.7692 16.1081 22.3722 17.4168 21.6284 18.53C20.8846 19.6432 19.8274 20.5108 18.5905 21.0232C17.3536 21.5355 15.9925 21.6696 14.6794 21.4084C13.3663 21.1472 12.1601 20.5025 11.2134 19.5558C10.2667 18.6091 9.62204 17.4029 9.36084 16.0898C9.09965 14.7767 9.2337 13.4157 9.74605 12.1788C10.2584 10.9418 11.126 9.88463 12.2392 9.14082C13.3524 8.39701 14.6612 8 16 8C17.7953 8 19.5171 8.71318 20.7866 9.98266C22.056 11.2521 22.7692 12.9739 22.7692 14.7692ZM32 16C32 19.1645 31.0616 22.2579 29.3035 24.8891C27.5454 27.5203 25.0466 29.5711 22.1229 30.7821C19.1993 31.9931 15.9823 32.3099 12.8786 31.6926C9.77486 31.0752 6.92394 29.5513 4.6863 27.3137C2.44866 25.0761 0.924806 22.2251 0.307443 19.1214C-0.309921 16.0177 0.00693255 12.8007 1.21793 9.87706C2.42894 6.95344 4.4797 4.45459 7.11088 2.69649C9.74207 0.938383 12.8355 0 16 0C20.241 0.00813226 24.3059 1.69645 27.3047 4.69527C30.3035 7.69409 31.9919 11.759 32 16ZM29.5385 16C29.5393 13.8073 29.0075 11.6472 27.9888 9.70547C26.9702 7.76374 25.4951 6.09849 23.6905 4.85292C21.8859 3.60735 19.8058 2.81874 17.629 2.5549C15.4523 2.29106 13.244 2.55989 11.1941 3.33826C9.14417 4.11664 7.314 5.38127 5.86094 7.02341C4.40789 8.66555 3.37544 10.636 2.85238 12.7655C2.32932 14.8949 2.3313 17.1195 2.85815 19.2479C3.385 21.3764 4.42096 23.3451 5.87693 24.9846C6.87321 23.5555 8.15704 22.3503 9.64616 21.4461C11.3559 23.0842 13.6322 23.9986 16 23.9986C18.3678 23.9986 20.6441 23.0842 22.3538 21.4461C23.843 22.3503 25.1268 23.5555 26.1231 24.9846C28.3271 22.5113 29.543 19.3129 29.5385 16Z" />
</g>
<defs>
<clipPath id="clip0_9_20">
<rect width="32" height="32" />
</clipPath>
</defs>
</svg>
