<svg width="94" height="94" viewBox="0 0 94 94" fill="none" xmlns="http://www.w3.org/2000/svg">
<path fill-rule="evenodd" clip-rule="evenodd" d="M47 0C21.0325 0 0 21.0325 0 47C0 67.7975 13.4538 85.3638 32.1363 91.5913C34.4863 92.0025 35.3675 90.5925 35.3675 89.3588C35.3675 88.2425 35.3088 84.5413 35.3088 80.605C23.5 82.7788 20.445 77.7263 19.505 75.0825C18.9763 73.7313 16.685 69.56 14.6875 68.4438C13.0425 67.5625 10.6925 65.3888 14.6287 65.33C18.33 65.2713 20.9738 68.7375 21.855 70.1475C26.085 77.2563 32.8412 75.2588 35.5437 74.025C35.955 70.97 37.1888 68.9138 38.54 67.7388C28.0825 66.5638 17.155 62.51 17.155 44.5325C17.155 39.4213 18.9763 35.1913 21.9725 31.9013C21.5025 30.7263 19.8575 25.9088 22.4425 19.4463C22.4425 19.4463 26.3787 18.2125 35.3675 24.2638C39.1275 23.2063 43.1225 22.6775 47.1175 22.6775C51.1125 22.6775 55.1075 23.2063 58.8675 24.2638C67.8563 18.1538 71.7925 19.4463 71.7925 19.4463C74.3775 25.9088 72.7325 30.7263 72.2625 31.9013C75.2588 35.1913 77.08 39.3625 77.08 44.5325C77.08 62.5688 66.0938 66.5638 55.6363 67.7388C57.34 69.2075 58.8088 72.0275 58.8088 76.4337C58.8088 82.72 58.75 87.7725 58.75 89.3588C58.75 90.5925 59.6313 92.0613 61.9813 91.5913C71.3114 88.4412 79.419 82.4446 85.1627 74.4455C90.9064 66.4464 93.9972 56.8476 94 47C94 21.0325 72.9675 0 47 0Z" fill="black"/>
</svg>
