<svg width="94" height="94" viewBox="0 0 94 94" fill="none" xmlns="http://www.w3.org/2000/svg">
<path fill-rule="evenodd" clip-rule="evenodd" d="M3.91669 11.1156C3.91669 9.20634 4.67513 7.37529 6.02518 6.02525C7.37522 4.6752 9.20627 3.91676 11.1155 3.91676H82.8767C83.8229 3.91521 84.76 4.1003 85.6346 4.46144C86.5091 4.82257 87.3038 5.35265 87.9733 6.02132C88.6427 6.69 89.1736 7.48415 89.5357 8.3583C89.8978 9.23244 90.0839 10.1694 90.0834 11.1156V82.8768C90.0844 83.8231 89.8988 84.7604 89.5373 85.6349C89.1757 86.5095 88.6453 87.3042 87.9763 87.9736C87.3073 88.6429 86.5129 89.1738 85.6385 89.5358C84.7641 89.8979 83.827 90.0839 82.8806 90.0834H11.1155C10.1698 90.0834 9.2334 89.8971 8.35974 89.5351C7.48608 89.1731 6.69232 88.6424 6.02379 87.9736C5.35527 87.3047 4.82509 86.5106 4.46354 85.6368C4.102 84.7629 3.91617 83.8264 3.91669 82.8807V11.1156ZM38.023 36.7698H49.6908V42.6291C51.3749 39.2608 55.6833 36.2293 62.1575 36.2293C74.5694 36.2293 77.5109 42.9385 77.5109 55.2486V78.0514H64.9501V58.0529C64.9501 51.0421 63.2659 47.0863 58.9889 47.0863C53.0552 47.0863 50.5877 51.3515 50.5877 58.0529V78.0514H38.023V36.7698ZM16.4814 77.5148H29.046V36.2293H16.4814V77.5109V77.5148ZM30.8438 22.7638C30.8675 23.8396 30.676 24.9093 30.2807 25.9101C29.8854 26.9109 29.2941 27.8227 28.5417 28.5919C27.7892 29.3611 26.8907 29.9723 25.8988 30.3895C24.9069 30.8068 23.8417 31.0217 22.7656 31.0217C21.6896 31.0217 20.6244 30.8068 19.6325 30.3895C18.6406 29.9723 17.7421 29.3611 16.9896 28.5919C16.2371 27.8227 15.6459 26.9109 15.2506 25.9101C14.8553 24.9093 14.6638 23.8396 14.6875 22.7638C14.734 20.6521 15.6055 18.6426 17.1154 17.1656C18.6253 15.6886 20.6535 14.8616 22.7656 14.8616C24.8778 14.8616 26.906 15.6886 28.4159 17.1656C29.9258 18.6426 30.7973 20.6521 30.8438 22.7638V22.7638Z" fill="#2867B2"/>
</svg>
