<svg width="94" height="94" viewBox="0 0 94 94" fill="none" xmlns="http://www.w3.org/2000/svg">
<path d="M94 47C94 59.4652 89.0482 71.4198 80.234 80.234C71.4198 89.0482 59.4652 94 47 94C34.5348 94 22.5802 89.0482 13.766 80.234C4.95177 71.4198 0 59.4652 0 47C0 34.5348 4.95177 22.5802 13.766 13.766C22.5802 4.95177 34.5348 0 47 0C59.4652 0 71.4198 4.95177 80.234 13.766C89.0482 22.5802 94 34.5348 94 47V47ZM48.6861 34.6978C44.1154 36.6013 34.9739 40.5375 21.2734 46.5065C19.0526 47.3877 17.8835 48.2572 17.7778 49.1032C17.6015 50.5309 19.3934 51.0949 21.8315 51.8645L22.8596 52.1876C25.2566 52.969 28.4879 53.8796 30.1622 53.9149C31.6897 53.9501 33.3876 53.3274 35.2617 52.0349C48.0634 43.3928 54.6728 39.0276 55.084 38.9336C55.3778 38.8631 55.789 38.7809 56.0592 39.0276C56.3354 39.2685 56.306 39.7326 56.2766 39.856C56.1004 40.6139 49.068 47.1469 45.4314 50.5309C44.2975 51.5884 43.4926 52.3345 43.3281 52.5049C42.9659 52.8751 42.5977 53.2394 42.2236 53.5976C39.9911 55.7479 38.3226 57.3576 42.3118 59.9896C44.2329 61.2586 45.7721 62.2985 47.3055 63.3442C48.974 64.484 50.6425 65.6179 52.8045 67.0396C53.3509 67.3921 53.8796 67.774 54.3908 68.1382C56.3354 69.5247 58.092 70.7703 60.2481 70.5705C61.5054 70.453 62.8038 69.278 63.4618 65.753C65.0186 57.4281 68.0795 39.3977 68.7845 31.9659C68.8275 31.3481 68.8019 30.7274 68.7081 30.1152C68.6528 29.6213 68.4137 29.1662 68.0384 28.8404C67.5038 28.4714 66.8665 28.2802 66.2171 28.294C64.4546 28.3234 61.7345 29.2693 48.6861 34.6978V34.6978Z" fill="#0088cc"/>
</svg>
